<svg width="154" height="26" viewBox="0 0 154 26" fill="none" xmlns="http://www.w3.org/2000/svg">
<path d="M14.82 10.24V7H1V21H5.76V15.82H14.26V12.58H5.76V10.24H14.82ZM27.2497 7V14.76C27.2497 17.62 26.0897 18.1 24.2097 18.1C22.3097 18.1 21.1697 17.62 21.1697 14.76V7H16.4297V15.14C16.4297 20.56 20.2297 21.3 24.2097 21.3C28.1897 21.3 31.9897 20.56 31.9897 15.14V7H27.2497ZM45.2883 21H50.3883L47.0683 15.84C48.8483 15.12 49.9283 13.76 49.9283 11.64C49.9283 8.78 47.8083 7 43.9483 7H33.9883V21H38.7283V16.46H42.4483L45.2883 21ZM38.7283 10.24H43.2683C44.5283 10.24 45.1083 10.72 45.1083 11.64C45.1083 12.54 44.6683 13.26 43.2683 13.26H38.7283V10.24ZM62.9659 7V15.34L56.6059 7H51.5859V21H56.3259V12.68L62.6859 21H67.7059V7H62.9659ZM69.7109 7V21H74.4709V7H69.7109ZM91.4088 7H76.0688V10.24H81.3688V21H86.1088V10.24H91.4088V7ZM103.832 7V14.76C103.832 17.62 102.672 18.1 100.792 18.1C98.8917 18.1 97.7517 17.62 97.7517 14.76V7H93.0117V15.14C93.0117 20.56 96.8117 21.3 100.792 21.3C104.772 21.3 108.572 20.56 108.572 15.14V7H103.832ZM121.87 21H126.97L123.65 15.84C125.43 15.12 126.51 13.76 126.51 11.64C126.51 8.78 124.39 7 120.53 7H110.57V21H115.31V16.46H119.03L121.87 21ZM115.31 10.24H119.85C121.11 10.24 121.69 10.72 121.69 11.64C121.69 12.54 121.25 13.26 119.85 13.26H115.31V10.24ZM142.168 17.78H132.908V15.44H141.408V12.2H132.908V10.24H141.968V7H128.168V21H142.168V17.78Z" fill="#00043B"/>
<circle cx="151" cy="9" r="3" fill="#ED2727"/>
</svg>
